# xmcd
#
# Track frame offsets: 
#        150
#        4144
#        21813
#        41224
#        56769
#        76521
#        93539
#        109347
#        111315
#        126151
#        147659
#        150331
#        164904
#        188857
#        206668
#        215923
#        238178
#        262503
#        283500
#        298126
#        320514
#
# Disc length: 4691 seconds
#
# Revision: 0
# Processed by: cddbd v1.5.2PL0 Copyright (c) Steve Scherf et al.
# Submitted via: ExactAudioCopyFreeDBPlugin 1.0
#
DISCID=40125115
DTITLE=Susan Gibson - The Second Hand [live]
DYEAR=2014
DGENRE=Americana
TTITLE0=Introduction
TTITLE1=Wide Open Spaces
TTITLE2=Walls Come Down
TTITLE3=Cactus
TTITLE4=Baby Teeth
TTITLE5=Together Strong
TTITLE6=Trophy Girl
TTITLE7=2 Hometowns intro
TTITLE8=2 Hometowns
TTITLE9=Last of His Kind
TTITLE10=If I'd Thought intro
TTITLE11=If I'd Thought
TTITLE12=Stop the Bleeding
TTITLE13=Christmas in Houston
TTITLE14=Best of You intro
TTITLE15=Best of You
TTITLE16=Upon Re-Entry
TTITLE17=Evergreen
TTITLE18=The Second Hand
TTITLE19=Chin Up
TTITLE20=Just One More Thing, Mom
EXTD=
EXTT0=
EXTT1=
EXTT2=
EXTT3=
EXTT4=
EXTT5=
EXTT6=
EXTT7=
EXTT8=
EXTT9=
EXTT10=
EXTT11=
EXTT12=
EXTT13=
EXTT14=
EXTT15=
EXTT16=
EXTT17=
EXTT18=
EXTT19=
EXTT20=
PLAYORDER=
